#!OML:ASF F:\VICON\USERDATA\INSTALL\rory3\rory3.ASF
:FULLY-SPECIFIED
:DEGREES
225
root 1.33877 27.2634 1.62156 -1.14282 7.3097 0.800961
lowerback 10.0731 -1.20777 -0.444861
upperback -0.320102 -1.63201 0.459384
thorax -5.96446 -0.78072 0.976455
lowerneck -14.365 -2.3187 -6.39399
upperneck 12.066 -2.57781 5.11236
head 6.16512 -1.13797 2.4301
rclavicle 2.16054e-014 3.77691e-015
rhumerus -42.1445 -4.34097 -65.042
rradius 23.0635
rwrist 7.8244
rhand -29.5168 -0.419018
rfingers 7.12502
rthumb -2.85079 -30.3797
lclavicle 2.16054e-014 3.77691e-015
lhumerus -39.0446 5.77291 68.2868
lradius 37.6263
lwrist 5.56155
lhand -27.7446 16.984
lfingers 7.12502
lthumb -1.1392 46.9607
rfemur -10.1749 14.3967 16.4629
rtibia 26.0502
rfoot 6.78219 -16.8926
rtoes -5.51165
lfemur -3.61741 -5.63553 -20.176
ltibia 15.6759
lfoot 17.8881 10.354
ltoes -8.32224
226
root 1.34886 27.1023 1.65144 -1.26672 7.35841 0.761438
lowerback 9.97583 -1.22877 -0.42892
upperback -0.301513 -1.65771 0.462402
thorax -5.8898 -0.794435 0.97157
lowerneck -14.5549 -2.29754 -6.25885
upperneck 12.1688 -2.54351 4.94578
head 6.22385 -1.12621 2.35737
rclavicle 2.03009e-014 -9.14409e-015
rhumerus -42.1919 -3.29232 -66.0425
rradius 23.5141
rwrist 7.07301
rhand -29.5978 -0.609005
rfingers 7.12502
rthumb -2.92908 -30.5686
lclavicle 2.03009e-014 -9.14409e-015
lhumerus -38.6527 4.96598 68.7237
lradius 38.1116
lwrist 5.78144
lhand -28.3474 16.2861
lfingers 7.12502
lthumb -1.72143 46.2589
rfemur -10.1091 14.627 16.3596
rtibia 25.9477
rfoot 6.72375 -16.8175
rtoes -6.07759
lfemur -3.47183 -5.77454 -20.0986
ltibia 15.4132
lfoot 17.5983 10.0993
ltoes -9.04639
227
root 1.35858 26.9256 1.6784 -1.4107 7.42198 0.769752
lowerback 9.88704 -1.22648 -0.449043
upperback -0.251583 -1.65771 0.446512
thorax -5.78699 -0.794983 0.963046
lowerneck -14.6616 -2.28233 -6.22139
upperneck 12.1112 -2.52101 4.93474
head 6.22151 -1.1129 2.34916
rclavicle -3.73964e-015 1.25234e-014
rhumerus -42.3238 -1.84121 -67.2633
rradius 24.216
rwrist 5.81254
rhand -30.0337 -0.494538
rfingers 7.12502
rthumb -3.34996 -30.448
lclavicle -3.73964e-015 1.25234e-014
lhumerus -38.1575 4.11393 69.0776
lradius 38.5576
lwrist 5.91386
lhand -28.9752 16.4884
lfingers 7.12502
lthumb -2.3278 46.4554
rfemur -10.0804 14.8211 16.2039
rtibia 25.9184
rfoot 6.74007 -16.7875
rtoes -6.3935
lfemur -3.28251 -5.94459 -20.0817
ltibia 15.1425
lfoot 17.0459 9.97367
ltoes -9.32997
228
root 1.36735 26.735 1.70167 -1.50048 7.47811 0.651033
lowerback 9.84257 -1.25106 -0.348296
upperback -0.274824 -1.67742 0.468058
thorax -5.78825 -0.807301 0.931006
lowerneck -14.7174 -2.23418 -6.15281
upperneck 12.0413 -2.46286 4.92092
head 6.20419 -1.08174 2.33868
rclavicle 7.41715e-015 3.97569e-015
rhumerus -42.5325 -0.381771 -68.4024
rradius 25.0664
rwrist 4.54565
rhand -30.2632 -0.339317
rfingers 7.12502
rthumb -3.57161 -30.2891
lclavicle 7.41715e-015 3.97569e-015
lhumerus -37.751 3.21751 69.3506
lradius 39.0413
lwrist 6.03148
lhand -28.7621 17.3506
lfingers 7.12502
lthumb -2.12195 47.3198
rfemur -10.2099 14.9733 16.168
rtibia 25.9859
rfoot 6.81495 -16.7751
rtoes -6.04256
lfemur -3.17353 -5.92298 -19.9031
ltibia 14.8438
lfoot 16.9227 9.9227
ltoes -8.33543
229
root 1.37929 26.5329 1.72505 -1.58317 7.57147 0.49401
lowerback 9.88693 -1.32873 -0.187742
upperback -0.385436 -1.75976 0.5085
thorax -5.93199 -0.850845 0.898319
lowerneck -14.7958 -2.20437 -6.09972
upperneck 12.1618 -2.42685 4.88258
head 6.25253 -1.06426 2.3215
rclavicle 2.46555e-014 -9.93923e-016
rhumerus -42.8702 1.14998 -69.4494
rradius 26.0261
rwrist 3.47712
rhand -30.4542 -0.0823706
rfingers 7.12502
rthumb -3.75612 -30.029
lclavicle 2.46555e-014 -9.93923e-016
lhumerus -37.525 2.20632 69.5725
lradius 39.6001
lwrist 6.32249
lhand -28.6482 17.3974
lfingers 7.12502
lthumb -2.01192 47.3677
rfemur -10.3736 14.9721 16.1715
rtibia 26.129
rfoot 6.85551 -16.6213
rtoes -6.24168
lfemur -3.06837 -5.83771 -19.6955
ltibia 14.5249
lfoot 16.6728 9.98369
ltoes -8.25015
230
root 1.39094 26.3175 1.75135 -1.6591 7.66695 0.421263
lowerback 9.85725 -1.38912 -0.133844
upperback -0.494364 -1.83085 0.559089
thorax -6.02903 -0.885929 0.932673
lowerneck -14.7031 -2.18633 -6.11045
upperneck 12.2173 -2.40321 4.85678
head 6.25302 -1.05679 2.31791
rclavicle -1.10139e-014 -2.38542e-015
rhumerus -43.3325 2.82186 -70.4729
rradius 27.1818
rwrist 2.36188
rhand -30.6229 0.308108
rfingers 7.12502
rthumb -3.91901 -29.6356
lclavicle -1.10139e-014 -2.38542e-015
lhumerus -37.3834 1.23944 69.7402
lradius 40.3548
lwrist 6.24248
lhand -28.2164 17.8566
lfingers 7.12502
lthumb -1.59496 47.8304
rfemur -10.4458 14.829 16.1006
rtibia 26.2781
rfoot 6.76879 -16.4109
rtoes -6.42566
lfemur -2.95165 -5.81884 -19.5978
ltibia 14.2121
lfoot 15.9439 10.0797
ltoes -9.38777
231
root 1.40358 26.0893 1.7779 -1.72843 7.71035 0.307281
lowerback 9.72596 -1.39456 -0.0301728
upperback -0.549405 -1.82134 0.640918
thorax -6.01352 -0.883326 0.955789
lowerneck -14.5798 -2.1608 -6.19184
upperneck 12.1426 -2.35165 4.82534
head 6.20612 -1.03958 2.32621
rclavicle -1.77043e-015 2.78299e-015
rhumerus -43.8279 4.47849 -71.3877
rradius 28.5648
rwrist 1.57886
rhand -29.0661 -0.497256
rfingers 7.12502
rthumb -2.41558 -30.4633
lclavicle -1.77043e-015 2.78299e-015
lhumerus -37.1603 0.160558 69.9871
lradius 41.2299
lwrist 6.04252
lhand -27.7764 18.8135
lfingers 7.12502
lthumb -1.16996 48.79
rfemur -10.5355 14.628 16.0839
rtibia 26.4379
rfoot 6.87366 -16.1218
rtoes -6.37466
lfemur -2.83493 -5.77545 -19.461
ltibia 13.8968
lfoot 15.4143 10.2988
ltoes -9.61035
232
root 1.4164 25.8507 1.80208 -1.8136 7.73395 0.109359
lowerback 9.67926 -1.36443 0.185816
upperback -0.583189 -1.75097 0.726988
thorax -6.02758 -0.854085 0.913373
lowerneck -14.7761 -2.18015 -6.27606
upperneck 12.2491 -2.34969 4.81694
head 6.274 -1.04121 2.33723
rclavicle -2.78485e-014 2.78299e-015
rhumerus -44.3399 5.93095 -72.1314
rradius 30.1753
rwrist 1.70023
rhand -30.1764 0.1773
rfingers 7.12502
rthumb -3.48777 -29.7739
lclavicle -2.78485e-014 2.78299e-015
lhumerus -36.8002 -1.28293 70.3558
lradius 42.0932
lwrist 6.54546
lhand -28.0946 18.8751
lfingers 7.12502
lthumb -1.4773 48.8497
rfemur -10.7991 14.5156 16.139
rtibia 26.6313
rfoot 7.23458 -16.0997
rtoes -6.78594
lfemur -2.70186 -5.68875 -19.2361
ltibia 13.5856
lfoot 15.0906 10.734
ltoes -9.32095
233
root 1.42669 25.5981 1.82646 -1.9933 7.76801 -0.127257
lowerback 9.71254 -1.36871 0.408826
upperback -0.575176 -1.72604 0.798837
thorax -6.04276 -0.84762 0.860296
lowerneck -15.1285 -2.18601 -6.26406
upperneck 12.4637 -2.34701 4.83136
head 6.40187 -1.0345 2.34008
rclavicle 9.50439e-016 -5.96354e-015
rhumerus -44.8784 7.48987 -72.9714
rradius 31.9477
rwrist 1.58442
rhand -29.6293 -2.13832
rfingers 7.12502
rthumb -2.95951 -32.0975
lclavicle 9.50439e-016 -5.96354e-015
lhumerus -36.3313 -2.71842 70.6217
lradius 42.8537
lwrist 7.38366
lhand -28.6107 18.3212
lfingers 7.12502
lthumb -1.97569 48.2918
rfemur -10.9758 14.4071 16.2815
rtibia 26.8821
rfoot 7.41423 -16.3709
rtoes -7.46558
lfemur -2.47021 -5.61064 -18.9735
ltibia 13.2583
lfoot 14.9281 11.2581
ltoes -9.46659
